<svg width="24" height="24" viewBox="0 0 24 24" fill="none" xmlns="http://www.w3.org/2000/svg">
<path d="M12 2.5L8.42 8.06L2 9.74L6.2 14.88L5.82 21.5L12 19.09L18.18 21.5L17.8 14.88L22 9.74L15.58 8.06L12 2.5ZM9.38 10.5C10 10.5 10.5 11 10.5 11.63C10.5 11.7771 10.471 11.9227 10.4147 12.0586C10.3585 12.1945 10.276 12.318 10.172 12.422C10.068 12.526 9.94449 12.6085 9.80861 12.6647C9.67272 12.721 9.52708 12.75 9.38 12.75C8.75 12.75 8.25 12.25 8.25 11.63C8.25 11 8.75 10.5 9.38 10.5ZM14.63 10.5C15.25 10.5 15.75 11 15.75 11.63C15.75 11.927 15.632 12.2119 15.422 12.422C15.2119 12.632 14.927 12.75 14.63 12.75C14 12.75 13.5 12.25 13.5 11.63C13.5 11 14 10.5 14.63 10.5ZM9 15H15C14.7536 15.5927 14.3371 16.099 13.8032 16.4553C13.2693 16.8115 12.6418 17.0016 12 17.0016C11.3582 17.0016 10.7307 16.8115 10.1968 16.4553C9.66287 16.099 9.24642 15.5927 9 15Z" fill="black"/>
</svg>
